<svg width="16" height="11" viewBox="0 0 16 11" fill="none" xmlns="http://www.w3.org/2000/svg">
<path d="M14.2637 3.52661C14.8912 3.52661 15.4 3.9927 15.4 4.56767V6.02893C15.4 6.60391 14.8912 7.06996 14.2637 7.06996H12.6952C12.0676 7.06996 11.5589 7.53611 11.5589 8.11108V9.53889C11.5589 10.1139 11.0501 10.5799 10.4226 10.5799H8.8277C8.20014 10.5799 7.69141 10.1139 7.69141 9.53889V8.07756C7.69141 7.50269 8.20014 7.03654 8.8277 7.03654H10.3963C11.0237 7.03654 11.5325 6.57049 11.5325 5.99551V4.56767C11.5325 3.9927 12.0412 3.52661 12.6688 3.52661H14.2637Z" fill="black"/>
<path d="M5.00374 7.07004H6.5723C6.95667 7.07004 7.29646 6.8952 7.50209 6.62763C7.64018 6.45523 7.72173 6.24248 7.72173 6.01221V4.58444C7.72173 4.00948 8.23047 3.54339 8.85803 3.54339H10.4266C11.0542 3.54339 11.5628 3.07728 11.5628 2.50232V1.04106C11.5628 0.466102 11.0542 0 10.4266 0H8.83164C8.20409 0 7.69541 0.466102 7.69541 1.04106V2.46886C7.69541 3.04382 7.18668 3.50992 6.55914 3.50992H4.99056C4.60621 3.50992 4.26641 3.68477 4.06078 3.9524C3.92268 4.12478 3.84112 4.33754 3.84112 4.56776V5.9956C3.84112 6.57057 3.3324 7.03662 2.70484 7.03662H1.13628C0.508737 7.03662 0 7.50267 0 8.07765V8.0913V9.53898C0 10.1139 0.508737 10.58 1.13628 10.58H2.73118C3.3576 10.58 3.86562 10.1156 3.86745 9.54203C3.86747 9.54101 3.86747 9.53999 3.86747 9.53898V8.11117C3.86747 7.5362 4.37619 7.07004 5.00374 7.07004Z" fill="black"/>
</svg>
