<svg width="200" height="200" viewBox="0 0 200 200" fill="none" xmlns="http://www.w3.org/2000/svg">
<rect width="200" height="200" fill="black"/>
<path d="M157.967 82.6113C163.508 82.6113 168 87.1857 168 92.8286V107.17C168 112.813 163.508 117.387 157.967 117.387H144.118C138.577 117.387 134.085 121.962 134.085 127.605V141.618C134.085 147.261 129.593 151.835 124.052 151.835H109.97C104.429 151.835 99.9371 147.261 99.9371 141.618V127.276C99.9371 121.634 104.429 117.059 109.97 117.059H123.82C129.36 117.059 133.852 112.485 133.852 106.842L133.852 92.8286C133.852 87.1857 138.344 82.6113 143.885 82.6113H157.967Z" fill="white"/>
<path d="M76.1805 117.388H90.0301C93.4239 117.388 96.4241 115.672 98.2397 113.046C99.459 111.354 100.179 109.266 100.179 107.006V92.9934C100.179 87.3505 104.671 82.7761 110.212 82.7761H124.062C129.603 82.7761 134.094 78.2016 134.094 72.5587V58.2173C134.094 52.5745 129.603 48 124.062 48L109.979 48C104.438 48 99.9466 52.5745 99.9466 58.2173V72.2303C99.9466 77.8732 95.4548 82.4476 89.9139 82.4476H76.0642C72.6705 82.4476 69.6703 84.1637 67.8547 86.7903C66.6353 88.4821 65.9152 90.5702 65.9152 92.8297V106.843C65.9152 112.486 61.4234 117.06 55.8824 117.06H42.0328C36.4919 117.06 32 121.634 32 127.277L32 127.411L32 141.619C32 147.262 36.4919 151.836 42.0328 151.836H56.115C61.6459 151.836 66.1315 147.278 66.1477 141.649C66.1478 141.639 66.1478 141.629 66.1478 141.619V127.606C66.1478 121.963 70.6396 117.388 76.1805 117.388Z" fill="white"/>
</svg>
